<?xml version="1.0" encoding="UTF-8" standalone="no"?>
<svg
   xmlns:dc="http://purl.org/dc/elements/1.1/"
   xmlns:cc="http://creativecommons.org/ns#"
   xmlns:rdf="http://www.w3.org/1999/02/22-rdf-syntax-ns#"
   xmlns:svg="http://www.w3.org/2000/svg"
   xmlns="http://www.w3.org/2000/svg"
   xmlns:sodipodi="http://sodipodi.sourceforge.net/DTD/sodipodi-0.dtd"
   xmlns:inkscape="http://www.inkscape.org/namespaces/inkscape"
   viewBox="0 0 1140 360"
   enable-background="new 0 0 1140 360"
   version="1.1"
   id="svg3729"
   sodipodi:docname="banner1.svg"
   inkscape:version="0.92.4 (5da689c313, 2019-01-14)">
  <metadata
     id="metadata3735">
    <rdf:RDF>
      <cc:Work
         rdf:about="">
        <dc:format>image/svg+xml</dc:format>
        <dc:type
           rdf:resource="http://purl.org/dc/dcmitype/StillImage" />
        <dc:title></dc:title>
      </cc:Work>
    </rdf:RDF>
  </metadata>
  <defs
     id="defs3733" />
  <sodipodi:namedview
     pagecolor="#ffffff"
     bordercolor="#666666"
     borderopacity="1"
     objecttolerance="10"
     gridtolerance="10"
     guidetolerance="10"
     inkscape:pageopacity="0"
     inkscape:pageshadow="2"
     inkscape:window-width="1920"
     inkscape:window-height="986"
     id="namedview3731"
     showgrid="false"
     inkscape:zoom="1.0860912"
     inkscape:cx="610.10765"
     inkscape:cy="127.91548"
     inkscape:window-x="-11"
     inkscape:window-y="-11"
     inkscape:window-maximized="1"
     inkscape:current-layer="svg3729" />
  <path
     d="M 0,0 H 1140 V 417.08545 H 0 Z"
     id="path3725"
     inkscape:connector-curvature="0"
     style="fill:#56b4d9;stroke-width:1.07636917" />
  <text
     xml:space="preserve"
     style="font-style:normal;font-weight:normal;font-size:40px;line-height:1.25;font-family:sans-serif;letter-spacing:0px;word-spacing:0px;fill:#ff0000;fill-opacity:1;stroke:none;"
     x="236.98457"
     y="136.03654"
     id="text3739"><tspan
       sodipodi:role="line"
       id="tspan3737"
       x="236.98457"
       y="172.52975" /></text>
  <g
     aria-label="Ruby on Rails MVC  "
     style="font-style:normal;font-weight:normal;font-size:40px;line-height:1.25;font-family:sans-serif;letter-spacing:0px;word-spacing:0px;fill:#ffffff;fill-opacity:1;stroke:none"
     id="text3743"
     transform="matrix(0.97716121,0,0,1.2201947,220.16747,-108.50239)">
    <path
       d="m 212.8688,134.08337 h -5.01953 l -9.72656,-11.5625 h -5.44922 v 11.5625 h -3.86719 v -29.08203 h 8.14454 q 2.63671,0 4.39453,0.35157 1.75781,0.33203 3.16406,1.21093 1.58203,0.9961 2.46094,2.51953 0.89843,1.50391 0.89843,3.82813 0,3.14453 -1.58203,5.27344 -1.58203,2.10937 -4.35547,3.18359 z m -9.04296,-20.89843 q 0,-1.25 -0.44922,-2.20703 -0.42969,-0.97657 -1.44532,-1.64063 -0.83984,-0.56641 -1.99218,-0.78125 -1.15235,-0.23437 -2.71485,-0.23437 h -4.55078 v 10.97656 h 3.90625 q 1.83594,0 3.20313,-0.3125 1.36718,-0.33203 2.32422,-1.21094 0.8789,-0.82031 1.28906,-1.875 0.42969,-1.07422 0.42969,-2.71484 z"
       id="path4550"
       inkscape:connector-curvature="0"
       style="fill:#ffffff" />
    <path
       d="m 234.02115,134.08337 h -3.67188 v -2.42187 q -1.85547,1.46484 -3.55468,2.24609 -1.69922,0.78125 -3.75,0.78125 -3.4375,0 -5.35157,-2.08984 -1.91406,-2.10938 -1.91406,-6.17188 v -14.16015 h 3.67188 v 12.42187 q 0,1.66016 0.15625,2.85157 0.15625,1.17187 0.66406,2.01171 0.52734,0.85938 1.36719,1.25 0.83984,0.39063 2.4414,0.39063 1.42578,0 3.10547,-0.74219 1.69922,-0.74219 3.16406,-1.89453 v -16.28906 h 3.67188 z"
       id="path4552"
       inkscape:connector-curvature="0"
       style="fill:#ffffff" />
    <path
       d="m 260.44693,123.00916 q 0,2.73437 -0.78125,4.92187 -0.76172,2.1875 -2.07031,3.67188 -1.38672,1.54296 -3.04688,2.32421 -1.66015,0.76172 -3.65234,0.76172 -1.85547,0 -3.24219,-0.44922 -1.38672,-0.42968 -2.73437,-1.17187 l -0.23438,1.01562 h -3.4375 v -30.39062 h 3.67188 v 10.85937 q 1.54296,-1.26953 3.28125,-2.07031 1.73828,-0.82031 3.90625,-0.82031 3.86718,0 6.09375,2.96875 2.24609,2.96875 2.24609,8.37891 z m -3.78906,0.0977 q 0,-3.90625 -1.28907,-5.91797 -1.28906,-2.03125 -4.16015,-2.03125 -1.60156,0 -3.24219,0.70313 -1.64062,0.68359 -3.04687,1.77734 v 12.5 q 1.5625,0.70313 2.67578,0.97656 1.13281,0.27344 2.55859,0.27344 3.04688,0 4.76563,-1.99219 1.73828,-2.01171 1.73828,-6.28906 z"
       id="path4554"
       inkscape:connector-curvature="0"
       style="fill:#ffffff" />
    <path
       d="m 284.95865,112.26697 -12.73438,29.86328 h -3.92578 l 4.0625,-9.10156 -8.6914,-20.76172 h 3.98437 l 6.69922,16.17187 6.75781,-16.17187 z"
       id="path4556"
       inkscape:connector-curvature="0"
       style="fill:#ffffff" />
    <path
       d="m 322.41959,123.18494 q 0,5.33203 -2.73438,8.41797 -2.73437,3.08593 -7.32422,3.08593 -4.6289,0 -7.36328,-3.08593 -2.71484,-3.08594 -2.71484,-8.41797 0,-5.33203 2.71484,-8.41797 2.73438,-3.10547 7.36328,-3.10547 4.58985,0 7.32422,3.10547 2.73438,3.08594 2.73438,8.41797 z m -3.78907,0 q 0,-4.23828 -1.66015,-6.28907 -1.66016,-2.07031 -4.60938,-2.07031 -2.98828,0 -4.64844,2.07031 -1.64062,2.05079 -1.64062,6.28907 0,4.10156 1.66016,6.23047 1.66015,2.10937 4.6289,2.10937 2.92969,0 4.58985,-2.08984 1.67968,-2.10938 1.67968,-6.25 z"
       id="path4558"
       inkscape:connector-curvature="0"
       style="fill:#ffffff" />
    <path
       d="m 346.3649,134.08337 h -3.67188 V 121.6615 q 0,-1.50391 -0.17578,-2.8125 -0.17578,-1.32813 -0.64453,-2.07031 -0.48828,-0.82032 -1.40625,-1.21094 -0.91797,-0.41016 -2.38281,-0.41016 -1.50391,0 -3.14453,0.74219 -1.64063,0.74219 -3.14453,1.89453 v 16.28906 h -3.67188 v -21.8164 h 3.67188 v 2.42187 q 1.71875,-1.42578 3.55468,-2.22656 1.83594,-0.80078 3.76953,-0.80078 3.53516,0 5.39063,2.12891 1.85547,2.1289 1.85547,6.13281 z"
       id="path4560"
       inkscape:connector-curvature="0"
       style="fill:#ffffff" />
    <path
       d="m 391.85318,134.08337 h -5.01953 l -9.72656,-11.5625 h -5.44922 v 11.5625 h -3.86719 v -29.08203 h 8.14453 q 2.63672,0 4.39453,0.35157 1.75781,0.33203 3.16406,1.21093 1.58204,0.9961 2.46094,2.51953 0.89844,1.50391 0.89844,3.82813 0,3.14453 -1.58203,5.27344 -1.58203,2.10937 -4.35547,3.18359 z m -9.04297,-20.89843 q 0,-1.25 -0.44922,-2.20703 -0.42969,-0.97657 -1.44531,-1.64063 -0.83984,-0.56641 -1.99219,-0.78125 -1.15234,-0.23437 -2.71484,-0.23437 h -4.55078 v 10.97656 h 3.90625 q 1.83593,0 3.20312,-0.3125 1.36719,-0.33203 2.32422,-1.21094 0.87891,-0.82031 1.28906,-1.875 0.42969,-1.07422 0.42969,-2.71484 z"
       id="path4562"
       inkscape:connector-curvature="0"
       style="fill:#ffffff" />
    <path
       d="m 411.48209,134.08337 h -3.65235 v -2.32421 q -0.48828,0.33203 -1.32812,0.9375 -0.82032,0.58593 -1.60157,0.9375 -0.91796,0.44921 -2.10937,0.74218 -1.19141,0.3125 -2.79297,0.3125 -2.94922,0 -5,-1.95312 -2.05078,-1.95313 -2.05078,-4.98047 0,-2.48047 1.05469,-4.00391 1.07422,-1.54297 3.04687,-2.42187 1.99219,-0.87891 4.78516,-1.19141 2.79297,-0.3125 5.99609,-0.46875 v -0.5664 q 0,-1.25 -0.44922,-2.07032 -0.42968,-0.82031 -1.25,-1.28906 -0.78125,-0.44922 -1.875,-0.60547 -1.09375,-0.15625 -2.28515,-0.15625 -1.44532,0 -3.22266,0.39063 -1.77734,0.37109 -3.67187,1.09375 h -0.19532 v -3.73047 q 1.07422,-0.29297 3.10547,-0.64453 2.03125,-0.35157 4.00391,-0.35157 2.30469,0 4.0039,0.39063 1.71875,0.37109 2.96875,1.28906 1.23047,0.89844 1.875,2.32422 0.64454,1.42578 0.64454,3.53516 z m -3.65235,-5.37109 v -6.07422 q -1.67969,0.0977 -3.96484,0.29297 -2.26563,0.19531 -3.59375,0.56641 -1.58203,0.44922 -2.5586,1.40625 -0.97656,0.9375 -0.97656,2.59765 0,1.875 1.13281,2.83203 1.13282,0.9375 3.45704,0.9375 1.93359,0 3.53515,-0.74218 1.60156,-0.76172 2.96875,-1.81641 z"
       id="path4564"
       inkscape:connector-curvature="0"
       style="fill:#ffffff" />
    <path
       d="m 422.53677,108.61462 h -4.14062 v -3.80859 h 4.14062 z m -0.23437,25.46875 h -3.67188 v -21.8164 h 3.67188 z"
       id="path4566"
       inkscape:connector-curvature="0"
       style="fill:#ffffff" />
    <path
       d="m 433.31802,134.08337 h -3.67187 v -30.39062 h 3.67187 z"
       id="path4568"
       inkscape:connector-curvature="0"
       style="fill:#ffffff" />
    <path
       d="m 456.20865,127.79431 q 0,2.98828 -2.48047,4.90235 -2.46094,1.91406 -6.73828,1.91406 -2.42188,0 -4.45313,-0.56641 -2.01172,-0.58594 -3.3789,-1.26953 v -4.12109 h 0.19531 q 1.73828,1.30859 3.86719,2.08984 2.1289,0.76172 4.08203,0.76172 2.42187,0 3.78906,-0.78125 1.36719,-0.78125 1.36719,-2.46094 0,-1.28906 -0.74219,-1.95312 -0.74219,-0.66407 -2.85156,-1.13282 -0.78125,-0.17578 -2.05078,-0.41015 -1.25,-0.23438 -2.28516,-0.50781 -2.87109,-0.76172 -4.08203,-2.22657 -1.19141,-1.48437 -1.19141,-3.63281 0,-1.34766 0.54688,-2.53906 0.5664,-1.19141 1.69922,-2.12891 1.09375,-0.91797 2.77343,-1.44531 1.69922,-0.54688 3.78907,-0.54688 1.95312,0 3.94531,0.48829 2.01172,0.46875 3.33984,1.15234 v 3.92578 h -0.19531 q -1.40625,-1.03516 -3.41797,-1.73828 -2.01172,-0.72266 -3.94531,-0.72266 -2.01172,0 -3.39844,0.78125 -1.38672,0.76172 -1.38672,2.28516 0,1.34766 0.83985,2.03125 0.82031,0.68359 2.65625,1.11328 1.01562,0.23438 2.26562,0.46875 1.26953,0.23438 2.10938,0.42969 2.55859,0.58594 3.94531,2.01172 1.38672,1.44531 1.38672,3.82812 z"
       id="path4570"
       inkscape:connector-curvature="0"
       style="fill:#ffffff" />
    <path
       d="m 501.73599,134.08337 h -3.86719 v -25.05859 l -8.08593,17.05078 h -2.30469 l -8.02734,-17.05078 v 25.05859 h -3.61329 v -29.08203 h 5.27344 l 7.75391,16.19141 7.5,-16.19141 h 5.37109 z"
       id="path4572"
       inkscape:connector-curvature="0"
       style="fill:#ffffff" />
    <path
       d="m 532.51724,105.00134 -10.58594,29.08203 h -5.15625 l -10.58593,-29.08203 h 4.14062 l 9.1211,25.58594 9.12109,-25.58594 z"
       id="path4574"
       inkscape:connector-curvature="0"
       style="fill:#ffffff" />
    <path
       d="m 559.39224,131.974 q -1.07422,0.46875 -1.95312,0.87891 -0.85938,0.41015 -2.26563,0.85937 -1.1914,0.37109 -2.59765,0.625 -1.38672,0.27344 -3.06641,0.27344 -3.16406,0 -5.76172,-0.87891 -2.57812,-0.89844 -4.49219,-2.79297 -1.875,-1.85547 -2.92968,-4.70703 -1.05469,-2.87109 -1.05469,-6.66015 0,-3.59375 1.01562,-6.42579 1.01563,-2.83203 2.92969,-4.78515 1.85547,-1.89453 4.47266,-2.89063 2.63672,-0.99609 5.83984,-0.99609 2.34375,0 4.66797,0.56641 2.34375,0.5664 5.19531,1.99218 v 4.58985 h -0.29297 q -2.40234,-2.01172 -4.76562,-2.92969 -2.36328,-0.91797 -5.0586,-0.91797 -2.20703,0 -3.98437,0.72266 -1.75781,0.70312 -3.14453,2.20703 -1.34766,1.46484 -2.10938,3.71094 -0.74218,2.22656 -0.74218,5.15625 0,3.0664 0.82031,5.27343 0.83984,2.20703 2.14844,3.59375 1.36718,1.44532 3.18359,2.14844 1.83594,0.68359 3.86719,0.68359 2.79297,0 5.23437,-0.95703 2.44141,-0.95703 4.57031,-2.87109 h 0.27344 z"
       id="path4576"
       inkscape:connector-curvature="0"
       style="fill:#ffffff" />
  </g>
</svg>
